<svg width="1200" height="630" viewBox="0 0 1200 630" fill="none" xmlns="http://www.w3.org/2000/svg">
  <defs>
    <linearGradient id="whozinBg" x1="140" y1="84" x2="1074" y2="568" gradientUnits="userSpaceOnUse">
      <stop stop-color="#09090B"/>
      <stop offset="1" stop-color="#000000"/>
    </linearGradient>
    <radialGradient id="pinkGlow" cx="0" cy="0" r="1" gradientUnits="userSpaceOnUse" gradientTransform="translate(890 160) rotate(140) scale(410 290)">
      <stop stop-color="#DB2777" stop-opacity="0.75"/>
      <stop offset="1" stop-color="#DB2777" stop-opacity="0"/>
    </radialGradient>
    <radialGradient id="violetGlow" cx="0" cy="0" r="1" gradientUnits="userSpaceOnUse" gradientTransform="translate(280 500) rotate(20) scale(360 260)">
      <stop stop-color="#A855F7" stop-opacity="0.4"/>
      <stop offset="1" stop-color="#A855F7" stop-opacity="0"/>
    </radialGradient>
    <linearGradient id="whozinTile" x1="0" y1="0" x2="132" y2="132" gradientUnits="userSpaceOnUse">
      <stop stop-color="#EC4899"/>
      <stop offset="0.5" stop-color="#A855F7"/>
      <stop offset="1" stop-color="#9333EA"/>
    </linearGradient>
  </defs>

  <rect width="1200" height="630" fill="url(#whozinBg)"/>
  <circle cx="890" cy="160" r="230" fill="url(#pinkGlow)"/>
  <circle cx="280" cy="500" r="190" fill="url(#violetGlow)"/>

  <g opacity="0.6">
    <rect x="724" y="112" width="96" height="96" rx="48" fill="url(#whozinTile)"/>
    <rect x="788" y="124" width="96" height="96" rx="48" fill="url(#whozinTile)"/>
    <rect x="852" y="136" width="96" height="96" rx="48" fill="url(#whozinTile)"/>
    <rect x="916" y="148" width="96" height="96" rx="48" fill="url(#whozinTile)"/>
    <text x="760" y="172" fill="#FFFFFF" font-family="Inter, Segoe UI, Arial, sans-serif" font-size="28" font-weight="700">S</text>
    <text x="824" y="184" fill="#FFFFFF" font-family="Inter, Segoe UI, Arial, sans-serif" font-size="28" font-weight="700">M</text>
    <text x="888" y="196" fill="#FFFFFF" font-family="Inter, Segoe UI, Arial, sans-serif" font-size="28" font-weight="700">A</text>
    <text x="953" y="208" fill="#FFFFFF" font-family="Inter, Segoe UI, Arial, sans-serif" font-size="28" font-weight="700">J</text>
  </g>

  <rect x="86" y="84" width="1028" height="462" rx="36" fill="rgba(255,255,255,0.03)" stroke="rgba(255,255,255,0.08)"/>
  <rect x="134" y="138" width="132" height="132" rx="30" fill="url(#whozinTile)"/>
  <path d="M154 162H182L198 241L214 162H240L256 241L272 162H300L277 289H249L224 193L199 289H171L154 162Z" fill="#FFFFFF"/>

  <text x="134" y="344" fill="#71717A" font-family="Inter, Segoe UI, Arial, sans-serif" font-size="18" font-weight="700" letter-spacing="0.26em">PRIVATE BY DEFAULT</text>
  <text x="134" y="416" fill="#FFFFFF" font-family="Inter, Segoe UI, Arial, sans-serif" font-size="78" font-weight="700" letter-spacing="-0.04em">
    12 friends are going
  </text>
  <text x="134" y="492" fill="#D4D4D8" font-family="Inter, Segoe UI, Arial, sans-serif" font-size="34" font-weight="500">
    Your crew is going to Subtronics tonight.
  </text>
  <text x="134" y="536" fill="#A1A1AA" font-family="Inter, Segoe UI, Arial, sans-serif" font-size="24" font-weight="500">
    See who&apos;s going before you go.
  </text>
</svg>
